# xmcd CD database file
#
# Track frame offsets:
#	150
#	14025
#	33075
#	56700
#	71475
#	88050
#	113325
#	140400
#
# Disc length: 2472 seconds
#
# Revision: 0
# Processed by: cddbd v1.5.1PL0 Copyright (c) Steve Scherf et al.
# Submitted via: CDex 1.51
#
DISCID=6509a608
DTITLE=Empty Black Box - Hyaku Nen Tattemo
DYEAR=2005
DGENRE=Jazz
TTITLE0=Naname
TTITLE1=Easy and Easy
TTITLE2=Bokura no Kimochi
TTITLE3=Datte so-desho
TTITLE4=Hanataba
TTITLE5=Hyakunen tattemo
TTITLE6=Boku wa yowamushi dakara
TTITLE7=Data
EXTD=YEAR: 2005
EXTT0=
EXTT1=
EXTT2=
EXTT3=
EXTT4=
EXTT5=
EXTT6=
EXTT7=
PLAYORDER=
